<mxfile host="Electron" agent="Mozilla/5.0 (Windows NT 10.0; Win64; x64) AppleWebKit/537.36 (KHTML, like Gecko) draw.io/24.7.8 Chrome/128.0.6613.36 Electron/32.0.1 Safari/537.36" version="24.7.8" pages="3">
  <diagram name="From code developer perspective" id="HxFXNJKx6h3pQ_oN9Vk9">
    <mxGraphModel dx="662" dy="433" grid="1" gridSize="10" guides="1" tooltips="1" connect="1" arrows="1" fold="1" page="1" pageScale="1" pageWidth="827" pageHeight="1169" math="0" shadow="0">
      <root>
        <mxCell id="0" />
        <mxCell id="1" parent="0" />
        <mxCell id="6tJd7Bp3pr9ignXYDa5n-10" value="" style="rounded=0;whiteSpace=wrap;html=1;opacity=50;fillColor=#d5e8d4;strokeColor=#82b366;" parent="1" vertex="1">
          <mxGeometry x="190" y="170" width="410" height="160" as="geometry" />
        </mxCell>
        <mxCell id="6tJd7Bp3pr9ignXYDa5n-6" style="edgeStyle=orthogonalEdgeStyle;rounded=0;orthogonalLoop=1;jettySize=auto;html=1;exitX=0.5;exitY=1;exitDx=0;exitDy=0;entryX=0.5;entryY=0;entryDx=0;entryDy=0;" parent="1" source="6tJd7Bp3pr9ignXYDa5n-1" target="6tJd7Bp3pr9ignXYDa5n-3" edge="1">
          <mxGeometry relative="1" as="geometry" />
        </mxCell>
        <mxCell id="6tJd7Bp3pr9ignXYDa5n-7" style="edgeStyle=orthogonalEdgeStyle;rounded=0;orthogonalLoop=1;jettySize=auto;html=1;exitX=1;exitY=0.5;exitDx=0;exitDy=0;entryX=0;entryY=0.5;entryDx=0;entryDy=0;" parent="1" source="6tJd7Bp3pr9ignXYDa5n-1" target="6tJd7Bp3pr9ignXYDa5n-4" edge="1">
          <mxGeometry relative="1" as="geometry" />
        </mxCell>
        <mxCell id="6tJd7Bp3pr9ignXYDa5n-8" style="edgeStyle=orthogonalEdgeStyle;rounded=0;orthogonalLoop=1;jettySize=auto;html=1;exitX=1;exitY=0.5;exitDx=0;exitDy=0;entryX=0;entryY=0.5;entryDx=0;entryDy=0;" parent="1" source="6tJd7Bp3pr9ignXYDa5n-1" target="6tJd7Bp3pr9ignXYDa5n-5" edge="1">
          <mxGeometry relative="1" as="geometry" />
        </mxCell>
        <mxCell id="it0WUjVhHr-77hp7u5Tm-2" style="edgeStyle=orthogonalEdgeStyle;rounded=0;orthogonalLoop=1;jettySize=auto;html=1;exitX=0;exitY=0.5;exitDx=0;exitDy=0;entryX=0.5;entryY=0;entryDx=0;entryDy=0;" edge="1" parent="1" source="6tJd7Bp3pr9ignXYDa5n-1" target="it0WUjVhHr-77hp7u5Tm-1">
          <mxGeometry relative="1" as="geometry" />
        </mxCell>
        <mxCell id="6tJd7Bp3pr9ignXYDa5n-1" value="Spring Boot" style="rounded=1;whiteSpace=wrap;html=1;fillColor=#d5e8d4;strokeColor=#82b366;" parent="1" vertex="1">
          <mxGeometry x="320" y="195" width="160" height="30" as="geometry" />
        </mxCell>
        <mxCell id="6tJd7Bp3pr9ignXYDa5n-11" style="edgeStyle=orthogonalEdgeStyle;rounded=0;orthogonalLoop=1;jettySize=auto;html=1;exitX=0.5;exitY=1;exitDx=0;exitDy=0;entryX=0.5;entryY=0;entryDx=0;entryDy=0;" parent="1" source="6tJd7Bp3pr9ignXYDa5n-2" target="6tJd7Bp3pr9ignXYDa5n-10" edge="1">
          <mxGeometry relative="1" as="geometry" />
        </mxCell>
        <mxCell id="6tJd7Bp3pr9ignXYDa5n-2" value="Application Business Coding Layer&amp;nbsp;" style="rounded=1;whiteSpace=wrap;html=1;fillColor=#dae8fc;strokeColor=#6c8ebf;" parent="1" vertex="1">
          <mxGeometry x="270" y="80" width="260" height="60" as="geometry" />
        </mxCell>
        <mxCell id="6tJd7Bp3pr9ignXYDa5n-3" value="Spring IoC" style="rounded=1;whiteSpace=wrap;html=1;fillColor=#d5e8d4;strokeColor=#82b366;" parent="1" vertex="1">
          <mxGeometry x="320" y="250" width="160" height="65" as="geometry" />
        </mxCell>
        <mxCell id="6tJd7Bp3pr9ignXYDa5n-12" style="edgeStyle=orthogonalEdgeStyle;rounded=0;orthogonalLoop=1;jettySize=auto;html=1;exitX=1;exitY=0.5;exitDx=0;exitDy=0;" parent="1" source="6tJd7Bp3pr9ignXYDa5n-4" edge="1">
          <mxGeometry relative="1" as="geometry">
            <mxPoint x="640" y="209.85714285714283" as="targetPoint" />
          </mxGeometry>
        </mxCell>
        <mxCell id="6tJd7Bp3pr9ignXYDa5n-4" value="Spring Data JPA" style="rounded=1;whiteSpace=wrap;html=1;fillColor=#d5e8d4;strokeColor=#82b366;" parent="1" vertex="1">
          <mxGeometry x="520" y="190" width="60" height="40" as="geometry" />
        </mxCell>
        <mxCell id="6tJd7Bp3pr9ignXYDa5n-14" style="edgeStyle=orthogonalEdgeStyle;rounded=0;orthogonalLoop=1;jettySize=auto;html=1;exitX=1;exitY=0.5;exitDx=0;exitDy=0;" parent="1" source="6tJd7Bp3pr9ignXYDa5n-5" edge="1">
          <mxGeometry relative="1" as="geometry">
            <mxPoint x="640" y="275" as="targetPoint" />
          </mxGeometry>
        </mxCell>
        <mxCell id="6tJd7Bp3pr9ignXYDa5n-5" value="Spring Data Redis" style="rounded=1;whiteSpace=wrap;html=1;fillColor=#d5e8d4;strokeColor=#82b366;" parent="1" vertex="1">
          <mxGeometry x="520" y="255" width="60" height="40" as="geometry" />
        </mxCell>
        <mxCell id="6tJd7Bp3pr9ignXYDa5n-13" value="" style="shape=datastore;whiteSpace=wrap;html=1;fillColor=#fff2cc;strokeColor=#d6b656;" parent="1" vertex="1">
          <mxGeometry x="650" y="195" width="30" height="30" as="geometry" />
        </mxCell>
        <mxCell id="6tJd7Bp3pr9ignXYDa5n-15" value="" style="image;sketch=0;aspect=fixed;html=1;points=[];align=center;fontSize=12;image=img/lib/mscae/Cache_Redis_Product.svg;" parent="1" vertex="1">
          <mxGeometry x="650.24" y="260" width="35.71" height="30" as="geometry" />
        </mxCell>
        <mxCell id="6tJd7Bp3pr9ignXYDa5n-17" value="&lt;div style=&quot;text-align: left;&quot;&gt;&lt;b style=&quot;background-color: initial;&quot;&gt;&lt;font style=&quot;font-size: 16px;&quot;&gt;From code developer perspective:&lt;/font&gt;&lt;/b&gt;&lt;/div&gt;&lt;div style=&quot;text-align: left;&quot;&gt;&lt;b&gt;&lt;font style=&quot;font-size: 16px;&quot;&gt;How application code interact with Spring framework?&lt;/font&gt;&lt;/b&gt;&lt;/div&gt;" style="text;html=1;align=center;verticalAlign=middle;whiteSpace=wrap;rounded=0;" parent="1" vertex="1">
          <mxGeometry x="210" y="20" width="450" height="30" as="geometry" />
        </mxCell>
        <mxCell id="6tJd7Bp3pr9ignXYDa5n-20" value="Spring Boot a only a tool for auto-configuring the Spring Framework" style="shape=note;whiteSpace=wrap;html=1;backgroundOutline=1;darkOpacity=0.05;fillColor=#fff2cc;strokeColor=#d6b656;size=18;" parent="1" vertex="1">
          <mxGeometry x="20" y="80" width="120" height="100" as="geometry" />
        </mxCell>
        <mxCell id="6tJd7Bp3pr9ignXYDa5n-21" style="edgeStyle=orthogonalEdgeStyle;rounded=0;orthogonalLoop=1;jettySize=auto;html=1;exitX=0;exitY=0.5;exitDx=0;exitDy=0;entryX=0;entryY=0;entryDx=120;entryDy=59;entryPerimeter=0;dashed=1;" parent="1" source="6tJd7Bp3pr9ignXYDa5n-1" target="6tJd7Bp3pr9ignXYDa5n-20" edge="1">
          <mxGeometry relative="1" as="geometry" />
        </mxCell>
        <mxCell id="it0WUjVhHr-77hp7u5Tm-1" value="Spring MVC" style="rounded=1;whiteSpace=wrap;html=1;fillColor=#d5e8d4;strokeColor=#82b366;" vertex="1" parent="1">
          <mxGeometry x="210" y="250" width="90" height="40" as="geometry" />
        </mxCell>
      </root>
    </mxGraphModel>
  </diagram>
  <diagram id="CetzEVvNPrQqHPS30Xum" name="From web request perspective">
    <mxGraphModel dx="662" dy="433" grid="1" gridSize="10" guides="1" tooltips="1" connect="1" arrows="1" fold="1" page="1" pageScale="1" pageWidth="827" pageHeight="1169" math="0" shadow="0">
      <root>
        <mxCell id="0" />
        <mxCell id="1" parent="0" />
        <mxCell id="LMrehkhd1_mzqCAk2MHY-5" value="Tomcat" style="rounded=1;whiteSpace=wrap;html=1;verticalAlign=top;" parent="1" vertex="1">
          <mxGeometry x="260" y="90" width="360" height="390" as="geometry" />
        </mxCell>
        <mxCell id="LMrehkhd1_mzqCAk2MHY-7" style="edgeStyle=orthogonalEdgeStyle;rounded=0;orthogonalLoop=1;jettySize=auto;html=1;exitX=1;exitY=0.5;exitDx=0;exitDy=0;entryX=0.003;entryY=0.194;entryDx=0;entryDy=0;entryPerimeter=0;" parent="1" source="LMrehkhd1_mzqCAk2MHY-2" edge="1" target="LMrehkhd1_mzqCAk2MHY-5">
          <mxGeometry relative="1" as="geometry">
            <mxPoint x="220" y="170" as="targetPoint" />
            <Array as="points">
              <mxPoint x="200" y="145" />
              <mxPoint x="200" y="170" />
              <mxPoint x="261" y="170" />
            </Array>
          </mxGeometry>
        </mxCell>
        <mxCell id="LMrehkhd1_mzqCAk2MHY-2" value="request" style="text;html=1;align=center;verticalAlign=middle;whiteSpace=wrap;rounded=0;" parent="1" vertex="1">
          <mxGeometry x="110" y="130" width="60" height="30" as="geometry" />
        </mxCell>
        <mxCell id="LMrehkhd1_mzqCAk2MHY-1" value="&amp;nbsp;&lt;span style=&quot;white-space: pre;&quot;&gt;&#x9;&lt;/span&gt;Spring MVC" style="rounded=1;whiteSpace=wrap;html=1;fillColor=#d5e8d4;strokeColor=#82b366;verticalAlign=top;align=left;fontStyle=2" parent="1" vertex="1">
          <mxGeometry x="280" y="200" width="310" height="250" as="geometry" />
        </mxCell>
        <mxCell id="LMrehkhd1_mzqCAk2MHY-6" value="DispatcherServlet (HttpServlet)" style="rounded=1;whiteSpace=wrap;html=1;verticalAlign=top;" parent="1" vertex="1">
          <mxGeometry x="304.5" y="230" width="260" height="200" as="geometry" />
        </mxCell>
        <mxCell id="LMrehkhd1_mzqCAk2MHY-3" value="response" style="text;html=1;align=center;verticalAlign=middle;whiteSpace=wrap;rounded=0;" parent="1" vertex="1">
          <mxGeometry x="110" y="210" width="60" height="20" as="geometry" />
        </mxCell>
        <mxCell id="LMrehkhd1_mzqCAk2MHY-8" value="Filter" style="rounded=1;whiteSpace=wrap;html=1;verticalAlign=top;" parent="1" vertex="1">
          <mxGeometry x="342.25" y="130" width="195.5" height="30" as="geometry" />
        </mxCell>
        <mxCell id="LMrehkhd1_mzqCAk2MHY-9" value="Interceptor" style="rounded=1;whiteSpace=wrap;html=1;verticalAlign=top;" parent="1" vertex="1">
          <mxGeometry x="360.5" y="290" width="95" height="30" as="geometry" />
        </mxCell>
        <mxCell id="LMrehkhd1_mzqCAk2MHY-11" style="edgeStyle=orthogonalEdgeStyle;rounded=0;orthogonalLoop=1;jettySize=auto;html=1;entryX=1;entryY=0.5;entryDx=0;entryDy=0;" parent="1" target="LMrehkhd1_mzqCAk2MHY-3" edge="1">
          <mxGeometry relative="1" as="geometry">
            <mxPoint x="260" y="220" as="sourcePoint" />
            <mxPoint x="300" y="280" as="targetPoint" />
          </mxGeometry>
        </mxCell>
        <mxCell id="LMrehkhd1_mzqCAk2MHY-12" style="edgeStyle=orthogonalEdgeStyle;rounded=0;orthogonalLoop=1;jettySize=auto;html=1;exitX=1;exitY=0.25;exitDx=0;exitDy=0;entryX=0;entryY=0.25;entryDx=0;entryDy=0;" parent="1" source="qBLVawUO-C-t650Nr5v--2" target="qBLVawUO-C-t650Nr5v--3" edge="1">
          <mxGeometry relative="1" as="geometry">
            <mxPoint x="250" y="280" as="sourcePoint" />
            <mxPoint x="610" y="328" as="targetPoint" />
          </mxGeometry>
        </mxCell>
        <mxCell id="LMrehkhd1_mzqCAk2MHY-15" style="edgeStyle=orthogonalEdgeStyle;rounded=0;orthogonalLoop=1;jettySize=auto;html=1;exitX=0;exitY=0.75;exitDx=0;exitDy=0;entryX=1;entryY=0.5;entryDx=0;entryDy=0;" parent="1" source="qBLVawUO-C-t650Nr5v--3" target="qBLVawUO-C-t650Nr5v--2" edge="1">
          <mxGeometry relative="1" as="geometry">
            <Array as="points">
              <mxPoint x="650" y="351" />
              <mxPoint x="650" y="395" />
            </Array>
          </mxGeometry>
        </mxCell>
        <mxCell id="LMrehkhd1_mzqCAk2MHY-14" value="Business logic" style="rounded=1;whiteSpace=wrap;html=1;fillColor=#dae8fc;strokeColor=#6c8ebf;verticalAlign=top;" parent="1" vertex="1">
          <mxGeometry x="720" y="290" width="160" height="147.5" as="geometry" />
        </mxCell>
        <mxCell id="U86pM15hBIZVNhdWzzvj-1" value="&lt;div style=&quot;&quot;&gt;&lt;b style=&quot;background-color: initial;&quot;&gt;&lt;font style=&quot;font-size: 16px;&quot;&gt;From web request perspective:&lt;/font&gt;&lt;/b&gt;&lt;/div&gt;&lt;div style=&quot;&quot;&gt;&lt;b&gt;&lt;font style=&quot;font-size: 16px;&quot;&gt;&amp;nbsp; &amp;nbsp; How a request gets handled?&lt;/font&gt;&lt;/b&gt;&lt;/div&gt;" style="text;html=1;align=left;verticalAlign=middle;whiteSpace=wrap;rounded=0;" parent="1" vertex="1">
          <mxGeometry x="304.5" y="10" width="310" height="40" as="geometry" />
        </mxCell>
        <mxCell id="qBLVawUO-C-t650Nr5v--1" value="DispatcherServlet" style="rounded=1;whiteSpace=wrap;html=1;verticalAlign=top;" vertex="1" parent="1">
          <mxGeometry x="358.5" y="335" width="105.5" height="25" as="geometry" />
        </mxCell>
        <mxCell id="qBLVawUO-C-t650Nr5v--2" value="HandlerMapping" style="rounded=1;whiteSpace=wrap;html=1;verticalAlign=top;" vertex="1" parent="1">
          <mxGeometry x="369" y="380" width="95" height="30" as="geometry" />
        </mxCell>
        <mxCell id="qBLVawUO-C-t650Nr5v--6" style="edgeStyle=orthogonalEdgeStyle;rounded=0;orthogonalLoop=1;jettySize=auto;html=1;exitX=0.75;exitY=1;exitDx=0;exitDy=0;entryX=0.75;entryY=0;entryDx=0;entryDy=0;" edge="1" parent="1" source="qBLVawUO-C-t650Nr5v--3" target="qBLVawUO-C-t650Nr5v--4">
          <mxGeometry relative="1" as="geometry" />
        </mxCell>
        <mxCell id="qBLVawUO-C-t650Nr5v--3" value="Controller" style="rounded=1;whiteSpace=wrap;html=1;verticalAlign=top;" vertex="1" parent="1">
          <mxGeometry x="752.5" y="325" width="95" height="35" as="geometry" />
        </mxCell>
        <mxCell id="qBLVawUO-C-t650Nr5v--9" style="edgeStyle=orthogonalEdgeStyle;rounded=0;orthogonalLoop=1;jettySize=auto;html=1;exitX=0.25;exitY=0;exitDx=0;exitDy=0;entryX=0.5;entryY=1;entryDx=0;entryDy=0;" edge="1" parent="1" source="qBLVawUO-C-t650Nr5v--4" target="qBLVawUO-C-t650Nr5v--3">
          <mxGeometry relative="1" as="geometry" />
        </mxCell>
        <mxCell id="qBLVawUO-C-t650Nr5v--4" value="Service" style="rounded=1;whiteSpace=wrap;html=1;verticalAlign=top;" vertex="1" parent="1">
          <mxGeometry x="752.5" y="385" width="95" height="35" as="geometry" />
        </mxCell>
        <mxCell id="qBLVawUO-C-t650Nr5v--10" style="rounded=0;orthogonalLoop=1;jettySize=auto;html=1;entryX=0;entryY=0.5;entryDx=0;entryDy=0;exitX=0.007;exitY=0.194;exitDx=0;exitDy=0;exitPerimeter=0;" edge="1" parent="1" source="LMrehkhd1_mzqCAk2MHY-5" target="LMrehkhd1_mzqCAk2MHY-8">
          <mxGeometry relative="1" as="geometry">
            <mxPoint x="270" y="230" as="sourcePoint" />
            <mxPoint x="180" y="230" as="targetPoint" />
          </mxGeometry>
        </mxCell>
        <mxCell id="qBLVawUO-C-t650Nr5v--12" style="rounded=0;orthogonalLoop=1;jettySize=auto;html=1;exitX=0.5;exitY=1;exitDx=0;exitDy=0;entryX=0.5;entryY=0;entryDx=0;entryDy=0;" edge="1" parent="1" source="LMrehkhd1_mzqCAk2MHY-8" target="LMrehkhd1_mzqCAk2MHY-6">
          <mxGeometry relative="1" as="geometry">
            <mxPoint x="283" y="202" as="sourcePoint" />
            <mxPoint x="440" y="230" as="targetPoint" />
          </mxGeometry>
        </mxCell>
        <mxCell id="qBLVawUO-C-t650Nr5v--13" style="rounded=0;orthogonalLoop=1;jettySize=auto;html=1;entryX=0.75;entryY=0;entryDx=0;entryDy=0;exitX=0.796;exitY=0.954;exitDx=0;exitDy=0;exitPerimeter=0;" edge="1" parent="1" source="LMrehkhd1_mzqCAk2MHY-9" target="qBLVawUO-C-t650Nr5v--1">
          <mxGeometry relative="1" as="geometry">
            <mxPoint x="287.5" y="212" as="sourcePoint" />
            <mxPoint x="336.5" y="212" as="targetPoint" />
          </mxGeometry>
        </mxCell>
        <mxCell id="qBLVawUO-C-t650Nr5v--14" style="rounded=0;orthogonalLoop=1;jettySize=auto;html=1;entryX=0.75;entryY=0;entryDx=0;entryDy=0;exitX=0.75;exitY=1;exitDx=0;exitDy=0;" edge="1" parent="1" source="qBLVawUO-C-t650Nr5v--1" target="qBLVawUO-C-t650Nr5v--2">
          <mxGeometry relative="1" as="geometry">
            <mxPoint x="297.5" y="222" as="sourcePoint" />
            <mxPoint x="346.5" y="222" as="targetPoint" />
          </mxGeometry>
        </mxCell>
      </root>
    </mxGraphModel>
  </diagram>
  <diagram id="fVbzcKxXHnjSiY9w-2rU" name="Spring Framework Components">
    <mxGraphModel dx="794" dy="519" grid="1" gridSize="10" guides="1" tooltips="1" connect="1" arrows="1" fold="1" page="1" pageScale="1" pageWidth="827" pageHeight="1169" math="0" shadow="0">
      <root>
        <mxCell id="0" />
        <mxCell id="1" parent="0" />
      </root>
    </mxGraphModel>
  </diagram>
</mxfile>
